<?xml version="1.0" encoding="utf-8"?>
<!-- Generator: Adobe Illustrator 15.0.0, SVG Export Plug-In  -->
<!DOCTYPE svg PUBLIC "-//W3C//DTD SVG 1.1//EN" "http://www.w3.org/Graphics/SVG/1.1/DTD/svg11.dtd" [
	<!ENTITY ns_flows "http://ns.adobe.com/Flows/1.0/">
]>
<svg version="1.1"
	 xmlns="http://www.w3.org/2000/svg" xmlns:xlink="http://www.w3.org/1999/xlink" xmlns:a="http://ns.adobe.com/AdobeSVGViewerExtensions/3.0/"
	 x="0px" y="0px" width="216px" height="216px" viewBox="-1 -36.957 216 216"
	 overflow="visible" enable-background="new -1 -36.957 216 216" xml:space="preserve">
<defs>
</defs>
<path fill="#E9E9E9" d="M143.827,0.854c-9.006-0.077-23.35,9.149-28.176,20.987c-0.342,1.068-0.641,2.003-0.641,2.003
	c-3.797,11.865-4.688,24.772-2.678,38.721c0.486,3.371,1.165,6.917,2.188,11.435c0.473,2.087,0.835,3.817,0.806,3.849
	c-0.091,0.096-1.466-3.579-2.375-6.35c-0.951-2.899-1.933-6.647-2.546-9.73c-1.451-7.295-1.731-15.439-0.784-22.854
	c1.301-10.184,2.765-20.29,12.58-30.547c0.016-0.017-2.907,1.36-5.279,3.275c-2.373,1.915-6.394,3.459-6.454,3.246
	C110.258,14.14,117.565,2.719,131.625,0c-5.074,0.298-12.122,2.403-19.866,9.655c-8.81,8.25-10.454,16.255-11.508,20.155
	c-3.828,14.167-2.454,35.679,2.658,41.959c1.966,2.416,5.1,6.16,8.793,9.232c0.834,0.694,3.168,2.544,5.171,4.098
	c4.417,3.428,4.282,3.318,4.062,3.318c-0.094,0-1.435-0.167-2.982-0.371c-3.366-0.442-11.002-0.508-11.726-0.18
	c-0.653,0.295-1.472,0.99-1.321,1.12c0.062,0.054,8.793,1.142,12.926,2.421c5.27,1.63,7.427,2.355,7.237,2.437
	c-0.227,0.096-15.642,3.379-15.866,3.379c-0.047,0,0.456-0.809,1.122-1.803c0.665-0.995,1.163-1.844,1.107-1.891
	c-0.127-0.111-6.528-2.114-6.6-2.043c-0.045,0.046,3.533,11.049,3.776,11.802c0.085,0.261,0.012,0.327-0.571,0.525
	c-0.965,0.329-1.604,0.883-1.998,1.733c-0.454,0.983-0.466,2.642-0.04,5.951c0.168,1.307,0.272,2.404,0.233,2.443
	c-0.088,0.089-4.133,1.886-5.88,1.168c-0.785-0.322-2.159-0.061-3.693-1.089c-3.366-2.255-10.554-6.24-11.988-6.088
	c-1.253,0.133-6.228,3.939-6.367,3.979c-0.222,0.063-1.381-10.816-1.381-11.839c0-0.625-0.039-1.144-0.086-1.144
	c-0.046,0-0.525,0.171-1.051,0.374c-1.061,0.412-1.211,4.32-1.359,5.456l-0.09,0.695l-0.796,0.157
	c-1.207,0.238-1.226,0.231-1.572-0.597c-0.767-1.832-3.07-4.835-4.82-6.286c-1.065-0.883-2.896-2.123-3.85-2.607
	c-0.341-0.174-0.585-0.336-0.554-0.368c0.032-0.031,6.705,1.236,6.705,1.236l3.852-3.293c0,0-4.459-0.683-9.448-1.684
	c-1.523-0.305-30.063-3.413-40.745-4.486c-9.517-0.956-12.212-1.094-14.418-0.732c-4.29,0.701-6.357,2.795-7.317,7.411
	c-0.262,1.263-1.002,24.66-1.085,26.811c-0.082,2.146-0.181,9.297-0.219,15.873L0,148.856h0.938h0.937c0,0,0.052-8.807,0.121-8.729
	c0.066,0.073,0.389,1.143,0.718,2.379c1.155,4.346,2.058,6.436,3.224,7.462c0.73,0.644,1.477,0.876,2.812,0.876
	c1.487,0,2.287-0.267,5.142-1.714c1.505-0.764,5.568-1.981,11.35-2.685c4.233-0.516,6.124-0.357,8.082,0.676
	c1.063,0.561,1.892,1.322,4.253,3.907c2.489,2.724,5.192,4.771,8.388,6.352c2.24,1.107,3.878,1.678,6.392,2.224
	c1.599,0.348,1.996,0.376,5.703,0.409l9.29,0.035l0.965,0.532c0.654,0.361,0.902,0.568,0.767,0.641
	c-0.368,0.2-8.061,0.697-9.751,0.926c-2.048,0.277-6.619,0.313-9.091,0.071c-0.937-0.092-3.494-0.392-5.681-0.665
	c-5.213-0.653-8.017-0.908-10-0.908H32.94l0.554,0.49c0.854,0.755,2.344,1.48,3.792,1.848c0.719,0.184,3.864,0.855,6.988,1.496
	c11.094,2.271,16.09,7.375,21.466,4.528l1.311,0.629c0,0-3.903,3.963-16.882,0.629c-9.307-2.391-38.934-10.349-39.19-10.433
	c-0.551-0.181,1.307,1.03,2.33,1.518c2.268,1.081,35.099,10.023,41.406,11.278c7.312,1.455,17.323-0.279,18.863-7.68
	c0.34-1.634,0.743-5.824,0.861-8.963l0.104-2.755l1.009,0.092c2.088,0.192,2.885,0.816,2.885,0.816s7.883,2.562,11.534,0.089
	c3.066-2.078,5.426-2.948,8.636-3.186c1.406-0.104,2.311-0.259,3.395-0.581c2.784-0.825,0.954-1.58,1.755,0.06
	c0.385,0.788,0.406,0.938,0.486,3.452c0.09,2.826,0.197,3.308,0.997,4.474c0.915,1.335,2.101,2.16,5.311,3.695
	c4.615,2.206,21.351,10.308,29.532,14.748c1.605,0.871,3.32,1.708,3.821,1.864c1.629,0.507,3.551,0.339,5.298-0.464
	c0.414-0.189,37.622-20.708,38.622-21.695c2.162-2.136,2.361-3.181,2.009-10.538c-0.132-2.742-0.144-2.817-0.589-3.722
	c-1.139-2.314-3.196-3.339-14.9-7.417c-2.841-0.99-3.566-1.293-3.516-1.468c0.035-0.121,1.1-3.928,2.365-8.459
	s2.339-8.28,2.387-8.331c0.047-0.051,1.036-0.196,2.216-0.325c8.877-0.976,10.426-1.256,12.301-2.229
	c1.938-1.007,3.003-2.324,3.886-4.81c1.16-3.267,2.951-5.881,6.128-8.941c1.465-1.411,2.727-2.459,7.798-6.472
	c4.986-3.945,6.747-6.297,6.747-9.004c0-0.98-1.39-3.509-3.369-5.497c-2.644-2.656-7-11.775-7.291-15.127
	c-0.173-1.994-0.094-3.864,0.306-7.159c0.303-2.501,4.204-15.482-8.637-27.732c-4.873-4.649-10.151-9.753-19.771-15.051
	C150.32,0.232,146.587,1.21,143.827,0.854 M177.538,19.162c2.71,0.856,4.764,3.148,5.367,5.989c0.264,1.239,0.264,1.861,0.001,3.111
	c-0.564,2.685-2.445,4.855-5.111,5.901c-0.737,0.289-1.094,0.334-2.628,0.334c-1.605,0-1.87-0.037-2.756-0.385
	c-1.832-0.721-3.457-2.161-4.277-3.791c-0.656-1.305-0.851-2.131-0.851-3.622c0-2.656,1.136-4.876,3.281-6.412
	C172.592,18.835,175.181,18.417,177.538,19.162L177.538,19.162z M149.031,30.888c0.563,0.192,8.167,4.47,19.53,10.989
	c18.139,10.405,18.635,10.701,19.688,11.737c1.218,1.2,1.855,2.346,2.188,3.937c0.273,1.307,0.258,2.067-0.071,3.352
	c-0.309,1.21-0.632,1.889-1.954,4.119c-1.079,1.818-1.744,2.588-2.904,3.362c-2.12,1.413-4.574,1.72-6.989,0.872
	c-0.819-0.288-36.731-20.864-38.124-21.843c-2.722-1.916-3.92-5.586-2.857-8.753c0.425-1.264,2.364-4.573,3.248-5.54
	c1.211-1.326,2.834-2.241,4.553-2.568C146.142,30.398,148.122,30.579,149.031,30.888L149.031,30.888z M200.237,81.231
	c1.025,0.461,1.903,1.172,4.247,3.443c2.06,1.996,2.083,2.025,1.761,2.229c-0.18,0.113-1.747,1.072-3.493,2.139l-3.168,1.931
	l-3.366-2.715c-4.12-3.323-3.857-3.081-3.537-3.267c0.133-0.077,1.051-0.807,2.046-1.625c1.903-1.567,2.71-2.113,3.579-2.42
	C198.902,80.734,199.243,80.785,200.237,81.231L200.237,81.231z M192.255,88.883c0.97,0.447,2.06,1.437,2.832,2.573
	c0.589,0.867,1.67,3.074,1.67,3.409c0,0.126-2.017-0.737-5.539-2.372c-3.054-1.418-5.54-2.615-5.54-2.67
	c0-0.151,1.946-0.976,2.827-1.198C189.712,88.319,191.264,88.427,192.255,88.883L192.255,88.883z M130.117,104.091l0.462,0.476
	l-0.923,0.739c-1.278,1.022-2.286,2.189-2.821,3.267c-0.358,0.72-0.457,1.122-0.504,2.06c-0.092,1.832,0.575,3.409,2.42,5.725
	c3.651,4.583,4.489,8.963,3.066,16.022c-0.157,0.781-0.334,1.472-0.393,1.534c-0.059,0.062-0.15-0.512-0.204-1.279
	c-0.343-4.886-1.651-10.281-3.283-13.536c-1.433-2.854-3.318-5.344-5.397-7.121c-1.165-0.996-1.198-1.041-0.952-1.288
	c0.91-0.909,7.792-7.052,7.912-7.061C129.584,103.621,129.87,103.835,130.117,104.091L130.117,104.091z M146.125,118.179
	c1.505,0.381,2.592,1.01,3.764,2.18c3.19,3.184,3.153,7.989-0.085,11.176c-1.512,1.486-3.367,2.251-5.469,2.251
	c-2.145,0-3.982-0.771-5.539-2.319c-2.464-2.452-3.06-5.977-1.538-9.102c0.607-1.249,2.276-2.914,3.526-3.518
	C142.574,117.981,144.428,117.749,146.125,118.179L146.125,118.179z M102.469,122.798c4.205,0.492,5.834,1.021,7.372,2.393
	c0.427,0.381,0.963,1.029,1.18,1.429l0.397,0.731l-0.369,0.753c-0.536,1.094-2.223,2.656-3.31,3.067
	c-0.695,0.262-3.225,0.844-4.432,1.018c-0.312,0.046-0.402-0.172-1.946-4.703c-0.891-2.613-1.62-4.803-1.62-4.865
	C99.742,122.475,99.671,122.47,102.469,122.798L102.469,122.798z M65.157,117.7c1.165,1.591,1.322,1.575,0.924,7.669
	c-0.166,2.543-0.739,18.927-1.375,20.092c-0.713,1.306-2.037,2.145-3.856,2.443c-0.525,0.086-0.977,0.175-1.008,0.199
	c-0.032,0.024,0.031,0.148,0.149,0.291c0.113,0.136,0.579,0.859,1.03,1.598c0.451,0.739,0.953,1.533,1.108,1.755
	c0.16,0.227,0.262,0.42,0.234,0.44c-0.028,0.02-0.234,0.127-0.476,0.248c-0.233,0.116-1.108,0.573-1.932,1.009
	c-0.824,0.435-1.744,0.838-2.032,0.89c-0.651,0.116-1.52-0.067-4.147-0.879c-1.69-0.521-9.695-3.399-9.83-3.533
	c-0.022-0.023,0.033-0.334,0.121-0.675l0.163-0.633l1.655-0.092c0.915-0.052,2.735-0.128,4.069-0.171
	c1.335-0.043,2.688-0.11,3.026-0.148l0.611-0.072l-1.179-1.292c-0.649-0.711-1.994-2.116-2.991-3.125
	c-2.542-2.571-13.546-4.377-14.721-6.937c-1.168-2.55,0.108-5.07,0.087-8.309c-0.016-2.344,0.517-3.891,1.768-5.142
	c1.295-1.295,2.87-1.9,6.548-2.52C47.126,120.132,64.302,116.531,65.157,117.7z M140.082,162.733
	c-0.126,0.061-2.521-1.03-2.521-1.03c-1.392-0.568-2.585-1.087-2.663-1.157s0.043-0.059,0.271,0.028
	c0.227,0.086,0.434,0.131,0.461,0.1c0.027-0.032-1.157-0.639-2.648-1.357c-1.492-0.718-2.699-1.331-2.699-1.37
	c0-0.069,0.113-0.028,4.39,1.574c1.52,0.57,2.788,1.023,2.812,1.004c0.024-0.02-1.533-0.79-3.466-1.715
	c-3.551-1.698-4.457-2.195-3.025-1.655c0.431,0.162,2.408,0.898,4.396,1.637c1.989,0.739,3.631,1.327,3.65,1.307
	c0.02-0.02-1.171-0.607-2.649-1.307c-1.477-0.699-2.688-1.312-2.691-1.363c-0.003-0.051,1.506,0.477,3.353,1.172
	c1.847,0.694,3.375,1.248,3.395,1.229s-1.093-0.573-2.472-1.229c-1.377-0.655-2.57-1.252-2.648-1.323
	c-0.138-0.127,1.25,0.356,3.905,1.359c0.739,0.278,1.354,0.484,1.378,0.461s-1.207-0.642-2.74-1.377
	c-2.855-1.368-3.569-1.795-2.018-1.206c6.932,2.633,8.416,3.187,8.451,3.151c0.023-0.023-1.271-0.673-2.876-1.442
	c-1.605-0.769-2.951-1.449-2.99-1.512c-0.038-0.062,0.114-0.042,0.327,0.042c1.392,0.544,6.502,2.389,6.533,2.358
	c0.023-0.023-1.513-0.794-3.401-1.705c-1.89-0.911-3.374-1.662-3.289-1.662c0.087,0,1.783,0.606,3.758,1.343
	c1.974,0.736,3.62,1.323,3.644,1.3s-0.839-0.464-1.904-0.973c-3.664-1.751-4.729-2.281-4.676-2.335
	c0.025-0.024,1.665,0.563,3.64,1.305c1.974,0.741,3.612,1.33,3.636,1.307s-1.406-0.737-3.182-1.589
	c-2.841-1.362-4.135-2.049-3.224-1.712c0.155,0.058,1.817,0.676,3.678,1.369c1.861,0.693,3.418,1.241,3.445,1.215
	c0.027-0.027-1.13-0.611-2.578-1.3c-1.449-0.689-2.605-1.276-2.578-1.308c0.027-0.03,1.598,0.521,3.502,1.229
	c1.902,0.71,3.474,1.264,3.501,1.236c0.026-0.027-1.457-0.773-3.289-1.654c-1.832-0.882-3.315-1.628-3.288-1.655
	s1.933,0.652,4.219,1.506s4.188,1.536,4.212,1.513s-1.605-0.832-3.622-1.798c-3.211-1.539-4.595-2.265-3.65-1.915
	c0.156,0.058,2.066,0.769,4.254,1.582s3.989,1.455,4.013,1.428s-0.781-0.442-1.776-0.916c-4.715-2.247-5.444-2.608-5.39-2.663
	c0.035-0.036,1.946,0.638,4.232,1.491c2.287,0.854,4.188,1.539,4.212,1.52s-1.541-0.794-3.473-1.719s-3.541-1.704-3.572-1.73
	c-0.341-0.284,0.667,0.042,4.034,1.304c2.173,0.814,3.981,1.466,4.005,1.442s-1.47-0.766-3.331-1.654
	c-1.861-0.89-3.398-1.635-3.43-1.661c-0.329-0.282,0.653,0.029,3.892,1.233c2.088,0.775,3.825,1.396,3.85,1.372
	c0.023-0.023-1.428-0.744-3.218-1.598c-1.789-0.854-3.26-1.606-3.26-1.67c0-0.155,0.014-0.15,4.176,1.403
	c1.961,0.73,3.567,1.309,3.587,1.289s-1.428-0.733-3.217-1.586c-2.855-1.36-3.593-1.773-3.168-1.773
	c0.062,0,1.732,0.605,3.722,1.349c1.988,0.744,3.634,1.328,3.664,1.301c0.031-0.027-0.255-0.186-0.625-0.346
	c-1.932-0.839-5.763-2.788-5.567-2.833c0.125-0.029,1.775,0.523,3.679,1.232s3.468,1.27,3.487,1.25s-1.3-0.672-2.947-1.456
	c-1.647-0.785-3.011-1.465-3.046-1.52c-0.179-0.287,0.46-0.102,3.344,0.974c1.748,0.65,3.205,1.163,3.231,1.135
	c0.027-0.026-1.2-0.648-2.72-1.377c-1.534-0.735-2.716-1.382-2.649-1.449c0.067-0.066,1.562,0.416,3.367,1.087
	c1.789,0.666,3.264,1.188,3.288,1.165c0.023-0.023-1.258-0.676-2.834-1.442c-1.818-0.885-2.772-1.417-2.593-1.448
	c0.157-0.028,1.648,0.463,3.324,1.094c1.676,0.63,3.062,1.124,3.09,1.101s-1.201-0.643-2.721-1.372
	c-2.485-1.193-3.107-1.568-2.599-1.568c0.085,0,1.533,0.513,3.21,1.137c1.676,0.624,3.075,1.116,3.104,1.094
	c0.027-0.024-1.193-0.638-2.728-1.371c-1.591-0.761-2.723-1.383-2.649-1.456s1.513,0.388,3.374,1.08
	c1.79,0.666,3.262,1.19,3.28,1.171c0.021-0.019-1.228-0.638-2.762-1.37s-2.827-1.354-2.862-1.378c-0.038-0.025-0.01-0.094,0.07-0.17
	c0.082-0.077,1.399,0.346,3.317,1.065c1.747,0.654,3.201,1.177,3.225,1.157c0.023-0.021-1.222-0.639-2.756-1.371
	c-1.534-0.731-2.827-1.357-2.862-1.385c-0.038-0.029-0.01-0.101,0.071-0.178c0.078-0.074,1.526,0.397,3.473,1.13
	c3.267,1.232,4.215,1.522,2.6,0.798c-2.671-1.198-5.316-2.55-5.171-2.643c0.094-0.06,1.684,0.454,3.53,1.141
	c1.847,0.688,3.372,1.237,3.388,1.222c0.016-0.015-1.308-0.664-2.954-1.448c-1.648-0.785-3.011-1.465-3.044-1.52
	c-0.181-0.298,0.473-0.111,3.355,0.961c1.747,0.65,3.201,1.164,3.225,1.141s-1.264-0.671-2.869-1.441
	c-1.605-0.771-2.857-1.453-2.791-1.521c0.066-0.065,1.584,0.428,3.359,1.094c1.775,0.667,3.261,1.192,3.288,1.165
	s-1.307-0.707-2.969-1.513s-2.919-1.488-2.798-1.52c0.12-0.031,1.754,0.521,3.614,1.222c1.861,0.7,3.415,1.262,3.438,1.243
	c0.022-0.021-1.393-0.728-3.153-1.577c-1.762-0.85-3.196-1.595-3.196-1.662c0-0.072,0.02-0.121,0.05-0.121
	c0.027,0,1.676,0.61,3.65,1.35c1.975,0.74,3.62,1.33,3.644,1.308c0.022-0.023-1.414-0.737-3.189-1.584s-3.295-1.598-3.373-1.665
	c-0.334-0.293,0.511-0.024,3.892,1.236c1.988,0.741,3.63,1.322,3.657,1.295s-0.518-0.315-1.199-0.634
	c-3.296-1.539-5.768-2.774-5.64-2.818c0.078-0.027,1.925,0.617,4.111,1.435c2.188,0.818,3.987,1.469,4.007,1.449
	c0.019-0.02-1.691-0.858-3.808-1.867c-2.116-1.01-3.788-1.853-3.722-1.875c0.067-0.024,1.996,0.658,4.298,1.518
	c4.02,1.503,5.199,1.875,3.437,1.084c-1.975-0.886-7.004-3.367-6.945-3.426c0.031-0.031,1.065,0.325,2.287,0.788
	s3.238,1.229,4.46,1.694c2.145,0.815,3.046,1.067,1.633,0.455c-0.979-0.425-7.397-3.603-7.059-3.496
	c0.156,0.05,1.938,0.718,3.97,1.488c2.031,0.771,3.702,1.387,3.722,1.371s-1.556-0.791-3.502-1.726s-3.521-1.717-3.501-1.74
	s1.243,0.442,2.72,1.036c2.515,1.01,4.44,1.747,5.114,1.957c0.156,0.05-1.378-0.741-3.409-1.757s-3.598-1.818-3.48-1.783
	s2.692,1.171,5.718,2.521l0,0c3.025,1.351,5.658,2.375,5.504,2.528 M121.958,157.37c10.482,5.198,11.876,5.927,11.889,6.215
	c0.011,0.242,0.031,0.265,0.081,0.086c0.085-0.305,0.188-0.311,0.587-0.033c0.205,0.143,0.319,0.374,0.333,0.672
	c0.019,0.384,0.031,0.399,0.085,0.1c0.091-0.511,0.225-0.604,0.533-0.373c0.167,0.126,0.305,0.466,0.362,0.892l0.093,0.688
	l0.021-0.604c0.014-0.412,0.084-0.604,0.22-0.604c0.334,0,0.484,0.326,0.62,1.349l0.133,0.995l0.021-0.881
	c0.011-0.483,0.072-0.911,0.134-0.949c0.304-0.184,0.494,0.268,0.659,1.56l0.18,1.407l0.019-1.236
	c0.021-1.25,0.101-1.416,0.55-1.142c0.104,0.064,0.247,0.985,0.369,2.378l0.198,2.272l0.021-2.173
	c0.021-2.032,0.038-2.164,0.27-2.032c0.208,0.119,0.287,0.568,0.477,2.742l0.228,2.599l0.021-2.464
	c0.017-1.875,0.062-2.451,0.192-2.408c0.254,0.085,0.336,0.597,0.558,3.48l0.194,2.528l0.071-2.798
	c0.057-2.202,0.109-2.776,0.249-2.692c0.138,0.083,0.17,1.052,0.142,4.39l-0.035,4.282l-15.554-7.862l-18.737-8.923l-0.092-0.823
	c-0.125-1.123-0.313-7.585-0.221-7.585C106.868,150.423,115.424,154.132,121.958,157.37L121.958,157.37z"/>
<path fill="#E9E9E9" d="M174.214,33.383c2.325,0.313,4.707-0.657,6.108-2.488c0.72-0.938,1.328-2.608,1.382-3.788
	c0.106-2.355-1.204-4.772-3.229-5.979c-1.561-0.929-0.127,0.135,0.944,1.323c0.679,0.753,1.443,2.47,1.551,3.482
	c0.429,4.031-2.818,7.119-6.931,6.827c-1.835-0.13-5.489-1.853-2.323-0.096C172.636,33.174,173.2,33.247,174.214,33.383
	L174.214,33.383z"/>
<path fill="#E9E9E9" d="M146.996,120.659c1.92,1.243,2.942,3.978,2.561,6.052c-0.324,1.762-3.029,4.967-7.504,4.021
	c-0.665-0.142-0.705-0.32-0.504-0.107c0.137,0.146,0.668,0.471,1.179,0.725c0.869,0.431,2.583,1.071,4.724,0.082
	c4.173-1.929,4.415-8.458,0.426-10.557C146.727,120.268,146.192,120.138,146.996,120.659L146.996,120.659z"/>
</svg>
